<svg id="Capa_1" enable-background="new 0 0 512 512" height="512" viewBox="0 0 512 512" width="512" xmlns="http://www.w3.org/2000/svg"><g><path d="m32.5 241.002h142.29l-21.21-21.21h-36.22c-8.28 0-15-6.72-15-15 0-8.29 6.72-15 15-15h27.43v-27.43c0-8.28 6.71-15 15-15 8.28 0 15 6.72 15 15v36.22l42.43 42.42h55.31c-7.83-7.67-14.45-16.58-19.54-26.25 49.557-58.035-10.796-146.751-83.84-118.79-13.52-21.42-37.22-34.96-63.15-34.96-41.36 0-75 33.65-75 75 0 16.3 5.44 32.07 15.27 45-13.33 17.55-17.96 39.42-13.77 60z"/><path d="m120 451.076v14.927c0 8.28 6.72 15 15 15h242c8.28 0 15-6.72 15-15v-14.927c48.42-19.99 85.935-58.313 105.529-105.073h-483.057c19.593 46.759 57.108 85.083 105.528 105.073z"/><path d="m497 271.002h-481.999c-8.74 0-15.688 7.469-14.947 16.274.821 9.757 2.374 19.353 4.617 28.726h502.657c2.243-9.372 3.797-18.969 4.618-28.726.739-8.774-6.221-16.274-14.946-16.274z"/><path d="m322.71 93.632 26.62 26.62c5.86 5.85 5.86 15.35 0 21.21-5.882 5.882-15.396 5.825-21.22 0l-30.71-30.71c-2.76 2.21-5.51 4.51-8.22 6.88 15.623 29.984 15.972 66.306-.17 97.1 2.29 2.69 4.77 5.21 7.39 7.53 5.85 5.15 10.11 11.65 12.61 18.74h33.79l-14.69-14.69c-5.85-5.86-5.85-15.35 0-21.21 5.86-5.86 15.36-5.86 21.22 0l31.82 31.82c18.85-18.86 35.74-40.53 44.27-62.73 5.31-13.806 7.116-27.049 5.514-39.214l30.323 10.108c7.859 2.62 16.353-1.628 18.974-9.487 2.619-7.859-1.628-16.354-9.487-18.974l-40.615-13.539 25.265-25.265c5.858-5.857 5.858-15.355 0-21.213-5.857-5.858-15.355-5.858-21.213 0l-25.265 25.265-13.538-40.615c-2.62-7.86-11.116-12.106-18.974-9.487-7.859 2.62-12.106 11.115-9.487 18.974l10.126 30.377c-14.328-1.978-32.426.467-54.333 12.51z"/><path d="m195.98 60.952c29.67 0 56.51 12.37 75.63 32.23 12.435-10.668 25.708-20.2 40.13-27.69-16.57-21.03-42.26-34.49-70.74-34.49-25.26 0-48.17 10.43-64.56 27.3 1.36 1.23 2.68 2.51 3.97 3.82 5.15-.78 10.35-1.17 15.57-1.17z"/><path d="m453.42 184.962c-7.76 20.19-20.5 39.12-35.05 56.04h62.63c0-23.83-9.51-46.07-25.3-62.48-.69 2.14-1.45 4.29-2.28 6.44z"/></g></svg>