<svg id="Capa_1" enable-background="new 0 0 512 512" height="512" viewBox="0 0 512 512" width="512" xmlns="http://www.w3.org/2000/svg"><g><g><g><path d="m141 372c-19.555 0-36.228 12.541-42.42 30h84.84c-6.192-17.459-22.865-30-42.42-30z"/><path d="m296 372c-3.955 0-7.79.517-11.446 1.48 2.785 9.168 4.695 18.709 5.677 28.52h48.189c-6.192-17.459-22.865-30-42.42-30z"/><path d="m296 222c-48.685 0-93.259 17.935-127.464 47.543 17.979 3.35 34.842 9.911 49.964 19.073 22.633-13.714 49.16-21.616 77.5-21.616 77.648 0 141.702 59.306 149.252 135h45.177c-7.685-100.542-91.952-180-194.429-180z"/><path d="m296 297c-18.395 0-35.834 4.166-51.43 11.595 11.262 10.764 20.855 23.26 28.347 37.055 7.276-2.36 15.03-3.65 23.083-3.65 36.22 0 66.522 25.808 73.491 60h45.573c-7.404-59.115-57.975-105-119.064-105z"/><path d="m141 342c36.22 0 66.522 25.808 73.491 60h45.573c-7.404-59.115-57.975-105-119.064-105s-111.66 45.885-119.064 105h45.573c6.969-34.192 37.271-60 73.491-60z"/></g><path d="m447 512h-382c-35.898 0-65-29.101-65-65 0-8.284 6.716-15 15-15h482c8.284 0 15 6.716 15 15 0 35.899-29.101 65-65 65z"/></g><g><g><path d="m230 45v60h252c16.569 0 30-13.431 30-30 0-16.569-13.431-30-30-30z"/></g><path d="m155 0h-140c-8.284 0-15 6.716-15 15s6.716 15 15 15h105v30h-105c-8.284 0-15 6.716-15 15s6.716 15 15 15h105v30h-105c-8.284 0-15 6.716-15 15s6.716 15 15 15h140c24.853 0 45-20.147 45-45v-60c0-24.853-20.147-45-45-45z"/></g></g></svg>