<svg id="Capa_1" enable-background="new 0 0 512 512" height="512" viewBox="0 0 512 512" width="512" xmlns="http://www.w3.org/2000/svg"><g><path d="m154.3 0h-100.8v30h79.2l30 90h31.5z"/><path d="m338.5 315c0-14.414-3.047-28.872-8.789-41.792l-.029-.029c-7.09-15.835-8.584-34.863-4.424-54.902.608-2.816 1.56-5.495 2.3-8.276h-188.26c5.793 21.537 4.807 44.985-3.796 67.266-7.031 18.428-8.848 38.247-5.273 57.231 7.489 40.806 41.501 77.67 88.271 84.119v63.383h-75v30h180v-30h-75v-63.426c53.455-7.774 90-52.93 90-103.574z"/><path d="m129.101 180h53.699l-20.1-60h-55.799z"/><path d="m337.899 180 22.2-60h-165.899l20.1 60z"/><path d="m353.5 30c-41.726 0-77.547 24.655-94.468 60h144.214l-44.766 120.396c-1.611 4.424-2.842 9.316-3.896 14.209-1.122 5.402-1.208 10.448-1.185 15.425.082 0 .165.029.247.029 19.775 0 39.023-5.479 56.133-16.362 30.498-19.395 48.721-52.545 48.721-88.697 0-57.891-47.109-105-105-105z"/></g></svg>