<svg id="Capa_1" enable-background="new 0 0 512 512" height="512" viewBox="0 0 512 512" width="512" xmlns="http://www.w3.org/2000/svg"><g><path d="m236.127 281.386c-10.761-10.762-28.113-10.696-38.788 0-10.69 10.69-10.69 28.09 0 38.79 10.7 10.69 28.099 10.69 38.798 0 10.69-10.7 10.69-28.1-.01-38.79zm-113.825-188.85-121.625 396.78c-3.419 11.14 6.661 21.808 18.039 18.94l402.204-102.24c-32.829-152.12-149.264-273.5-298.618-313.48zm25.119 298.77-23.379 23.38c-5.859 5.86-15.337 5.872-21.209 0-5.86-5.86-5.86-15.35 0-21.21l23.379-23.38c5.86-5.86 15.359-5.86 21.209 0 5.86 5.85 5.86 15.35 0 21.21zm6.04-199.99c-.83-8.25 5.18-15.6 13.429-16.43l48.348-4.86c8.24-.83 15.589 5.18 16.419 13.42.83 8.25-5.18 15.6-13.419 16.43l-48.348 4.86c-.51.05-1.02.08-1.52.08-7.61 0-14.129-5.77-14.909-13.5zm103.885 150.07c-22.399 22.399-58.816 22.402-81.217 0-22.389-22.39-22.389-58.83 0-81.22 22.476-22.456 58.765-22.432 81.217 0 22.39 22.39 22.39 58.83 0 81.22zm84.367 5.69c-.6 7.87-7.17 13.85-14.939 13.85-.38 0-.77-.01-1.16-.04-8.26-.64-14.439-7.85-13.809-16.11l3.48-45.15c.63-8.26 7.84-14.43 16.099-13.8s14.439 7.84 13.809 16.1z"/><path d="m500.697 385.736-50.618 12.87c-17.455-80.219-57.754-157.242-120.245-219.72-40.878-40.89-88.496-72.99-141.514-95.41-18.689-7.9-37.768-14.48-57.188-19.72l15.299-49.88c2.42-7.92 10.81-12.37 18.729-9.94 85.537 26.23 162.873 74.43 223.651 139.4 58.948 63 101.376 140.51 122.715 224.15 2.076 8.094-2.874 16.225-10.829 18.25z"/></g></svg>